# xmcd
#
# Track frame offsets:
#	150
#	17855
#	37522
#	60230
#	89853
#	116401
#	137255
#	152478
#	177038
#	194240
#	216578
#	238257
#	256531
#	277917
#	302424
#	320843
#	337427
#
# Disc length: 4719 seconds
#
# Revision: 2
# Processed by: cddbd v1.4PL0 Copyright (c) Steve Scherf et al.
# Submitted via: EasyCDDAExtractor 5.0.6
#
DISCID=ef126d11
DTITLE=Ricardo Arjona - BEST 93-03
DYEAR=2003
DGENRE=
TTITLE0=Asi De Ilógico
TTITLE1=Dime Que No
TTITLE2=Historia Del Portero
TTITLE3=Historia Del Taxi
TTITLE4=Jesus Verbo No Susrantivo
TTITLE5=Me Enseñaste
TTITLE6=Mujeres
TTITLE7=Olvidarte
TTITLE8=Realmente No Estoy Tan Solo
TTITLE9=Señora De Las Cuatro Decadas
TTITLE10=Si El Norte Fuera Sur
TTITLE11=Te Conozco
TTITLE12=Tu Reputación
TTITLE13=El Problema
TTITLE14=Minutos
TTITLE15=Dame
TTITLE16=Cara o Cruz (Bonus Fan's)
EXTD=
EXTT0=
EXTT1=
EXTT2=
EXTT3=
EXTT4=
EXTT5=
EXTT6=
EXTT7=
EXTT8=
EXTT9=
EXTT10=
EXTT11=
EXTT12=
EXTT13=
EXTT14=
EXTT15=
EXTT16=
PLAYORDER=
